{
  "accessors": [
    {
      "bufferView": 2,
      "componentType": 5126,
      "count": 65532,
      "max": [
        7.5811920166015625,
        4.8846869468688965,
        10.311759948730469
      ],
      "min": [
        -6.085247039794922,
        -9.873294830322266,
        -13.255372047424316
      ],
      "type": "VEC3"
    },
    {
      "bufferView": 2,
      "byteOffset": 786384,
      "componentType": 5126,
      "count": 65532,
      "max": [
        0.9999998807907104,
        0.9999998807907104,
        0.999999463558197
      ],
      "min": [
        -1.0,
        -0.9999992251396179,
        -0.9999998807907104
      ],
      "type": "VEC3"
    },
    {
      "bufferView": 1,
      "componentType": 5126,
      "count": 65532,
      "max": [
        0.9988089799880981,
        1.0080280303955078
      ],
      "min": [
        0.003909999970346689,
        -0.010947000235319138
      ],
      "type": "VEC2"
    },
    {
      "bufferView": 0,
      "componentType": 5125,
      "count": 321114,
      "type": "SCALAR"
    },
    {
      "bufferView": 2,
      "byteOffset": 1572768,
      "componentType": 5126,
      "count": 65532,
      "max": [
        6.104386806488037,
        4.3460822105407715,
        3.7953860759735107
      ],
      "min": [
        -3.859679937362671,
        -3.3570659160614014,
        -11.096090316772461
      ],
      "type": "VEC3"
    },
    {
      "bufferView": 2,
      "byteOffset": 2359152,
      "componentType": 5126,
      "count": 65532,
      "max": [
        0.9999992251396179,
        0.9999992251396179,
        0.9999989867210388
      ],
      "min": [
        -0.9999996423721313,
        -0.9998665452003479,
        -0.9999942183494568
      ],
      "type": "VEC3"
    },
    {
      "bufferView": 1,
      "byteOffset": 524256,
      "componentType": 5126,
      "count": 65532,
      "max": [
        0.9989140033721924,
        0.9998499751091003
      ],
      "min": [
        0.004344000015407801,
        0.003957000095397234
      ],
      "type": "VEC2"
    },
    {
      "bufferView": 0,
      "byteOffset": 1284456,
      "componentType": 5125,
      "count": 306420,
      "type": "SCALAR"
    },
    {
      "bufferView": 2,
      "byteOffset": 3145536,
      "componentType": 5126,
      "count": 65532,
      "max": [
        5.738286018371582,
        4.676863193511963,
        9.507591247558594
      ],
      "min": [
        -5.536592960357666,
        -2.105743885040283,
        -11.042814254760742
      ],
      "type": "VEC3"
    },
    {
      "bufferView": 2,
      "byteOffset": 3931920,
      "componentType": 5126,
      "count": 65532,
      "max": [
        0.9999978542327881,
        0.999809980392456,
        0.9999987483024597
      ],
      "min": [
        -0.999999463558197,
        -0.9999862313270569,
        -0.999999463558197
      ],
      "type": "VEC3"
    },
    {
      "bufferView": 1,
      "byteOffset": 1048512,
      "componentType": 5126,
      "count": 65532,
      "max": [
        0.9996330142021179,
        0.9999499917030334
      ],
      "min": [
        0.004676999989897013,
        0.0035310001112520695
      ],
      "type": "VEC2"
    },
    {
      "bufferView": 0,
      "byteOffset": 2510136,
      "componentType": 5125,
      "count": 272745,
      "type": "SCALAR"
    },
    {
      "bufferView": 2,
      "byteOffset": 4718304,
      "componentType": 5126,
      "count": 65532,
      "max": [
        5.788122177124023,
        4.808916091918945,
        9.509657859802246
      ],
      "min": [
        -5.4768171310424805,
        0.3645870089530945,
        -11.071846961975098
      ],
      "type": "VEC3"
    },
    {
      "bufferView": 2,
      "byteOffset": 5504688,
      "componentType": 5126,
      "count": 65532,
      "max": [
        0.9999973773956299,
        0.999809980392456,
        0.999999463558197
      ],
      "min": [
        -1.0,
        -0.9999998807907104,
        -0.9999956488609314
      ],
      "type": "VEC3"
    },
    {
      "bufferView": 1,
      "byteOffset": 1572768,
      "componentType": 5126,
      "count": 65532,
      "max": [
        0.9978709816932678,
        0.9997739791870117
      ],
      "min": [
        0.004472999833524227,
        0.004170000087469816
      ],
      "type": "VEC2"
    },
    {
      "bufferView": 0,
      "byteOffset": 3601116,
      "componentType": 5125,
      "count": 288594,
      "type": "SCALAR"
    },
    {
      "bufferView": 2,
      "byteOffset": 6291072,
      "componentType": 5126,
      "count": 65533,
      "max": [
        7.581020832061768,
        4.855496883392334,
        10.311759948730469
      ],
      "min": [
        -6.084798812866211,
        0.9811220169067383,
        -13.249515533447266
      ],
      "type": "VEC3"
    },
    {
      "bufferView": 2,
      "byteOffset": 7077468,
      "componentType": 5126,
      "count": 65533,
      "max": [
        0.9999986290931702,
        0.9999778866767883,
        0.9999901056289673
      ],
      "min": [
        -0.9999993443489075,
        -0.9999998807907104,
        -0.9999987483024597
      ],
      "type": "VEC3"
    },
    {
      "bufferView": 1,
      "byteOffset": 2097024,
      "componentType": 5126,
      "count": 65533,
      "max": [
        0.9993690252304077,
        0.9999210238456726
      ],
      "min": [
        0.004102000035345554,
        0.0032210000790655613
      ],
      "type": "VEC2"
    },
    {
      "bufferView": 0,
      "byteOffset": 4755492,
      "componentType": 5125,
      "count": 245433,
      "type": "SCALAR"
    },
    {
      "bufferView": 2,
      "byteOffset": 7863864,
      "componentType": 5126,
      "count": 19662,
      "max": [
        5.763922214508057,
        2.3017940521240234,
        9.507591247558594
      ],
      "min": [
        -5.549856185913086,
        0.819229006767273,
        -11.118368148803711
      ],
      "type": "VEC3"
    },
    {
      "bufferView": 2,
      "byteOffset": 8099808,
      "componentType": 5126,
      "count": 19662,
      "max": [
        0.9999988675117493,
        0.9999299049377441,
        0.9999935030937195
      ],
      "min": [
        -0.999976634979248,
        -0.9999984502792358,
        -0.9999528527259827
      ],
      "type": "VEC3"
    },
    {
      "bufferView": 1,
      "byteOffset": 2621288,
      "componentType": 5126,
      "count": 19662,
      "max": [
        0.9993529915809631,
        0.9998810291290283
      ],
      "min": [
        0.003413999918848276,
        0.004542999900877476
      ],
      "type": "VEC2"
    },
    {
      "bufferView": 0,
      "byteOffset": 5737224,
      "componentType": 5125,
      "count": 65226,
      "type": "SCALAR"
    }
  ],
  "asset": {
    "extras": {
      "author": "Abby Crawford (https://sketchfab.com/abby)",
      "license": "CC-BY-4.0 (http://creativecommons.org/licenses/by/4.0/)",
      "source": "https://sketchfab.com/3d-models/walden-pond-cabin-046925f275844ad88a877da91ad27c98",
      "title": "Walden Pond Cabin"
    },
    "generator": "Sketchfab-14.91.0",
    "version": "2.0"
  },
  "bufferViews": [
    {
      "buffer": 0,
      "byteLength": 5998128,
      "name": "floatBufferViews",
      "target": 34963
    },
    {
      "buffer": 0,
      "byteLength": 2778584,
      "byteOffset": 5998128,
      "byteStride": 8,
      "name": "floatBufferViews",
      "target": 34962
    },
    {
      "buffer": 0,
      "byteLength": 8335752,
      "byteOffset": 8776712,
      "byteStride": 12,
      "name": "floatBufferViews",
      "target": 34962
    }
  ],
  "buffers": [
    {
      "byteLength": 17112464,
      "uri": "scene.bin"
    }
  ],
  "extensionsUsed": [
    "KHR_materials_unlit"
  ],
  "images": [
    {
      "uri": "textures/walden_model_baseColor.jpeg"
    }
  ],
  "materials": [
    {
      "doubleSided": true,
      "extensions": {
        "KHR_materials_unlit": {}
      },
      "name": "walden_model",
      "pbrMetallicRoughness": {
        "baseColorTexture": {
          "index": 0
        },
        "metallicFactor": 0.0
      }
    }
  ],
  "meshes": [
    {
      "name": "Object_0",
      "primitives": [
        {
          "attributes": {
            "NORMAL": 1,
            "POSITION": 0,
            "TEXCOORD_0": 2
          },
          "indices": 3,
          "material": 0,
          "mode": 4
        }
      ]
    },
    {
      "name": "Object_1",
      "primitives": [
        {
          "attributes": {
            "NORMAL": 5,
            "POSITION": 4,
            "TEXCOORD_0": 6
          },
          "indices": 7,
          "material": 0,
          "mode": 4
        }
      ]
    },
    {
      "name": "Object_2",
      "primitives": [
        {
          "attributes": {
            "NORMAL": 9,
            "POSITION": 8,
            "TEXCOORD_0": 10
          },
          "indices": 11,
          "material": 0,
          "mode": 4
        }
      ]
    },
    {
      "name": "Object_3",
      "primitives": [
        {
          "attributes": {
            "NORMAL": 13,
            "POSITION": 12,
            "TEXCOORD_0": 14
          },
          "indices": 15,
          "material": 0,
          "mode": 4
        }
      ]
    },
    {
      "name": "Object_4",
      "primitives": [
        {
          "attributes": {
            "NORMAL": 17,
            "POSITION": 16,
            "TEXCOORD_0": 18
          },
          "indices": 19,
          "material": 0,
          "mode": 4
        }
      ]
    },
    {
      "name": "Object_5",
      "primitives": [
        {
          "attributes": {
            "NORMAL": 21,
            "POSITION": 20,
            "TEXCOORD_0": 22
          },
          "indices": 23,
          "material": 0,
          "mode": 4
        }
      ]
    }
  ],
  "nodes": [
    {
      "children": [
        1
      ],
      "matrix": [
        1.0,
        0.0,
        0.0,
        0.0,
        0.0,
        -1.0,
        -2.220446049250313e-16,
        0.0,
        0.0,
        2.220446049250313e-16,
        -1.0,
        0.0,
        0.0,
        0.0,
        0.0,
        1.0
      ],
      "name": "Sketchfab_model"
    },
    {
      "children": [
        2,
        3,
        4,
        5,
        6,
        7
      ],
      "name": "walden_model.obj.cleaner.materialmerger.gles"
    },
    {
      "mesh": 0,
      "name": "Object_2"
    },
    {
      "mesh": 1,
      "name": "Object_3"
    },
    {
      "mesh": 2,
      "name": "Object_4"
    },
    {
      "mesh": 3,
      "name": "Object_5"
    },
    {
      "mesh": 4,
      "name": "Object_6"
    },
    {
      "mesh": 5,
      "name": "Object_7"
    }
  ],
  "samplers": [
    {
      "magFilter": 9729,
      "minFilter": 9987,
      "wrapS": 10497,
      "wrapT": 10497
    }
  ],
  "scene": 0,
  "scenes": [
    {
      "name": "Sketchfab_Scene",
      "nodes": [
        0
      ]
    }
  ],
  "textures": [
    {
      "sampler": 0,
      "source": 0
    }
  ]
}
