{
  "accessors": [
    {
      "bufferView": 1,
      "componentType": 5126,
      "count": 34995,
      "max": [
        5.790473937988281,
        5.747312068939209,
        6.102752208709717
      ],
      "min": [
        -5.794981002807617,
        -6.427328109741211,
        -0.002836999949067831
      ],
      "type": "VEC3"
    },
    {
      "bufferView": 1,
      "byteOffset": 419940,
      "componentType": 5126,
      "count": 34995,
      "max": [
        0.9999884366989136,
        0.9999994039535522,
        0.9999998807907104
      ],
      "min": [
        -0.9999960660934448,
        -0.9999914169311523,
        -0.9999992847442627
      ],
      "type": "VEC3"
    },
    {
      "bufferView": 0,
      "componentType": 5125,
      "count": 214263,
      "type": "SCALAR"
    }
  ],
  "asset": {
    "extras": {
      "author": "Cristian Brevis Acevedo (https://sketchfab.com/cbrevis)",
      "license": "CC-BY-4.0 (http://creativecommons.org/licenses/by/4.0/)",
      "source": "https://sketchfab.com/3d-models/3december-9-2018-igloo-fa5c2a7d45ae424dab171efec99388a7",
      "title": "3December 9 2018 - Igloo"
    },
    "generator": "Sketchfab-12.67.0",
    "version": "2.0"
  },
  "bufferViews": [
    {
      "buffer": 0,
      "byteLength": 857052,
      "name": "floatBufferViews",
      "target": 34963
    },
    {
      "buffer": 0,
      "byteLength": 839880,
      "byteOffset": 857052,
      "byteStride": 12,
      "name": "floatBufferViews",
      "target": 34962
    }
  ],
  "buffers": [
    {
      "byteLength": 1696932,
      "uri": "scene.bin"
    }
  ],
  "materials": [
    {
      "doubleSided": true,
      "name": "Default_OBJ.009",
      "pbrMetallicRoughness": {
        "metallicFactor": 0.0,
        "roughnessFactor": 0.6
      }
    }
  ],
  "meshes": [
    {
      "name": "Object_0",
      "primitives": [
        {
          "attributes": {
            "NORMAL": 1,
            "POSITION": 0
          },
          "indices": 2,
          "material": 0,
          "mode": 4
        }
      ]
    }
  ],
  "nodes": [
    {
      "children": [
        1
      ],
      "matrix": [
        1.0,
        0.0,
        0.0,
        0.0,
        0.0,
        2.220446049250313e-16,
        -1.0,
        0.0,
        0.0,
        1.0,
        2.220446049250313e-16,
        0.0,
        0.0,
        0.0,
        0.0,
        1.0
      ],
      "name": "Sketchfab_model"
    },
    {
      "children": [
        2
      ],
      "name": "IglOO_low_shade.OBJ.cleaner.materialmerger.gles"
    },
    {
      "mesh": 0,
      "name": "Object_2"
    }
  ],
  "scene": 0,
  "scenes": [
    {
      "name": "Sketchfab_Scene",
      "nodes": [
        0
      ]
    }
  ]
}
